<?xml version="1.0" encoding="UTF-8" standalone="no"?>
<svg
   xmlns:dc="http://purl.org/dc/elements/1.1/"
   xmlns:cc="http://creativecommons.org/ns#"
   xmlns:rdf="http://www.w3.org/1999/02/22-rdf-syntax-ns#"
   xmlns:svg="http://www.w3.org/2000/svg"
   xmlns="http://www.w3.org/2000/svg"
   xmlns:sodipodi="http://sodipodi.sourceforge.net/DTD/sodipodi-0.dtd"
   xmlns:inkscape="http://www.inkscape.org/namespaces/inkscape"
   inkscape:version="1.0 (4035a4fb49, 2020-05-01)"
   sodipodi:docname="Reykjavik_University_Logo.svg"
   version="1.1"
   width="306.99988"
   viewBox="0 0 306.99987 311.35299"
   height="311.353"
   id="Layer_1">
  <metadata
     id="metadata48">
    <rdf:RDF>
      <cc:Work
         rdf:about="">
        <dc:format>image/svg+xml</dc:format>
        <dc:type
           rdf:resource="http://purl.org/dc/dcmitype/StillImage" />
      </cc:Work>
    </rdf:RDF>
  </metadata>
  <defs
     id="defs46" />
  <sodipodi:namedview
     inkscape:current-layer="Layer_1"
     inkscape:window-maximized="1"
     inkscape:window-y="-8"
     inkscape:window-x="-8"
     inkscape:cy="191.44276"
     inkscape:cx="358.80493"
     inkscape:zoom="1.648069"
     showgrid="false"
     id="namedview44"
     inkscape:window-height="1377"
     inkscape:window-width="2560"
     inkscape:pageshadow="2"
     inkscape:pageopacity="0"
     guidetolerance="10"
     gridtolerance="10"
     objecttolerance="10"
     borderopacity="1"
     bordercolor="#666666"
     pagecolor="#ffffff" />
  <g
     transform="matrix(2.7048448,0,0,2.7048448,-0.27048448,-0.27048448)"
     id="XMLID_1_">
    <path
       fill="#e63312"
       d="m 77.2,66.2 c 0.2,-0.5 0.4,-1.1 0.5,-1.7 l 13.9,4.8 c 2,-6.5 2.2,-13.6 0.3,-20.6 -0.6,-2.2 -1.5,-4.4 -2.5,-6.4 l 6.4,-2.8 C 93.5,34.8 90.4,30.5 86.4,26.8 82.4,23 77.8,20.2 73,18.3 l -7.4,20.4 c -1,-0.4 -1.9,-0.8 -3,-1.1 l 4,-14.1 c -5,-1.4 -10.5,-1.8 -15.9,-0.9 l 1,6.1 c -1,0.2 -2,0.4 -2.9,0.6 L 46,16.4 c -7.8,2 -15.2,6.2 -21.2,12.5 -5.9,6.4 -9.6,14 -11,22 l 6.9,1 c -0.2,1 -0.3,1.9 -0.4,2.9 l 6.2,0.4 c -0.3,2.3 -0.3,4.5 0,6.8 L 45,59.3 c -0.1,-1 0,-2 0.2,-2.9 0,-0.1 0,-0.2 0.1,-0.3 0,-0.1 0,-0.2 0.1,-0.3 0.1,-0.3 0.1,-0.5 0.2,-0.8 0,-0.1 0.1,-0.2 0.1,-0.4 0.1,-0.3 0.2,-0.5 0.3,-0.8 0,-0.1 0.1,-0.2 0.1,-0.3 0.2,-0.3 0.3,-0.7 0.5,-1 0,0 0.1,-0.1 0.1,-0.1 0.2,-0.3 0.4,-0.7 0.7,-1 0,-0.1 0.1,-0.1 0.1,-0.2 0.2,-0.2 0.3,-0.4 0.5,-0.6 1.3,-1.4 2.8,-2.3 4.4,-3 0.3,-0.1 0.6,-0.2 0.9,-0.3 0,0 0.1,0 0.1,0 0.4,-0.1 0.7,-0.2 1.1,-0.2 0,0 0.1,0 0.1,0 0.1,0 0.3,0 0.4,-0.1 0.2,0 0.5,-0.1 0.7,-0.1 0.1,0 0.1,0 0.2,0 0.2,0 0.4,0 0.6,0 0.2,0 0.4,0 0.6,0 0,0 0,0 0.1,0 0.4,0 0.7,0.1 1.1,0.1 0.1,0 0.1,0 0.2,0 0.4,0.1 0.8,0.1 1.2,0.3 0.9,0.2 1.7,0.6 2.6,1 0.1,0.1 0.2,0.1 0.3,0.2 0.1,0.1 0.2,0.1 0.4,0.2 0.2,0.1 0.5,0.3 0.7,0.5 0,0 0,0 0,0 0.1,0 0.1,0.1 0.2,0.1 0.3,0.2 0.5,0.4 0.8,0.7 0.3,0.3 0.5,0.5 0.8,0.8 0.1,0.1 0.1,0.1 0.2,0.2 0.2,0.3 0.4,0.5 0.6,0.8 0,0 0,0 0.1,0.1 0,0.1 0.1,0.1 0.1,0.2 0.2,0.3 0.4,0.6 0.5,0.8 0,0.1 0.1,0.1 0.1,0.2 0.2,0.3 0.3,0.7 0.5,1 0,0 0,0 0,0 0.1,0.3 0.3,0.7 0.4,1 0,0.1 0,0.1 0.1,0.2 0.1,0.3 0.2,0.6 0.2,0.9 0,0.1 0,0.2 0.1,0.4 0,0.3 0.1,0.5 0.1,0.8 0,0.1 0,0.2 0,0.3 0,0.3 0,0.6 0,1 0,0.1 0,0.2 0,0.3 0,0.3 0,0.5 -0.1,0.7 0,0.2 0,0.3 -0.1,0.5 0,0.1 0,0.2 -0.1,0.4 0,0.2 -0.1,0.3 -0.1,0.5 -0.1,0.5 -0.2,0.9 -0.4,1.4 -0.1,0.3 -0.2,0.6 -0.4,0.9 0,0.1 -0.1,0.1 -0.1,0.2 -0.5,1.1 -1.2,2.1 -2.1,3 -0.1,0.1 -0.1,0.1 -0.2,0.2 -1.1,1.1 -2.4,2 -3.7,2.6 -0.1,0 -0.1,0.1 -0.2,0.1 -0.2,0.1 -0.3,0.1 -0.5,0.2 -0.2,0.1 -0.5,0.2 -0.7,0.2 -0.1,0 -0.1,0 -0.2,0.1 -0.3,0.1 -0.7,0.2 -1,0.2 -0.1,0 -0.3,0 -0.4,0.1 -0.2,0 -0.5,0.1 -0.7,0.1 -0.1,0 -0.3,0 -0.4,0 -0.3,0 -0.6,0 -0.9,0 -0.1,0 -0.1,0 -0.2,0 -0.4,0 -0.7,-0.1 -1.1,-0.1 C 54.3,70.2 53.8,70.1 53.2,70 L 40.9,99.1 c 11.1,4.3 23.6,3.9 34.4,-1.2 l -3.2,-6.2 c 2.3,-1.1 4.5,-2.4 6.4,-3.8 L 74.7,83 c 1.3,-0.9 2.5,-2 3.6,-3.1 l 9.3,9.3 c 0.3,-0.3 0.6,-0.6 1,-1 3.9,-4.2 6.8,-8.9 8.7,-13.9 z"
       id="XMLID_2_" />
    <path
       fill="#e63312"
       d="m 46.4,77.8 4.5,-9 C 50.1,68.4 49.4,67.8 48.8,67.2 48.6,67 48.3,66.7 48.1,66.5 48.1,66.5 48,66.4 48,66.3 47.7,66 47.5,65.7 47.3,65.4 47.2,65.3 47.2,65.2 47.1,65.1 46.9,64.8 46.8,64.6 46.6,64.3 46.5,64.2 46.5,64.1 46.4,64 46.2,63.7 46.1,63.4 46,63.1 46,63 45.9,63 45.9,62.9 c -0.1,-0.3 -0.3,-0.7 -0.4,-1 0,-0.1 -0.1,-0.3 -0.1,-0.4 l -24,5.9 c 0.1,0.3 0.2,0.6 0.2,1 l -6.7,1.9 c 1.7,6 4.6,11.8 8.9,16.7 l 10.1,-8.5 c 1.1,1.2 2.2,2.4 3.5,3.4 L 43,75.5 c 0.9,0.8 2.1,1.6 3.4,2.3"
       id="XMLID_3_" />
    <polygon
       points="6.7,50.7 4,50.4 3.6,53.2 6.4,53.5 6.2,54.6 0.1,53.8 0.2,52.7 2.7,53.1 3,50.3 0.6,49.9 0.7,48.9 6.9,49.7 "
       fill="#4a4a49"
       id="XMLID_4_" />
    <path
       fill="#4a4a49"
       d="M 0.8,41.5 1.1,40.4 2,41.9 1.8,42.6 Z m 1.4,1.2 0.3,-1.1 6.6,-0.5 -0.3,1.1 -1.7,0.1 -0.7,2.4 1.4,1 -0.3,1.1 z m 3.5,1.4 0.5,-1.8 -2.8,0.1 v 0 z"
       id="XMLID_5_" />
    <path
       fill="#4a4a49"
       d="m 8.8,36.8 c 0.9,0.4 1.5,0 1.9,-0.8 0.4,-0.9 0.2,-1.4 -0.3,-1.6 C 10,34.2 9.7,34.3 9.5,34.5 9.2,34.8 8.8,35.3 8.2,35.9 7.5,36.7 6.8,36.7 6.2,36.4 5.1,35.9 5.1,34.6 5.6,33.6 6.2,32.4 7.3,31.8 8.4,32.3 l -0.5,1 C 7.2,33 6.7,33.3 6.3,34 6.1,34.5 6,35.1 6.5,35.4 c 0.4,0.2 0.7,0 1,-0.3 0.1,-0.1 1,-1.1 1.2,-1.4 0.6,-0.6 1.4,-0.7 1.9,-0.4 1.2,0.6 1.2,2 0.7,3.1 -0.6,1.3 -1.7,2 -3.1,1.3 z"
       id="XMLID_9_" />
    <polygon
       points="16.4,28 12.8,28 13,29.2 14.7,30.4 14.1,31.3 9,27.7 9.7,26.8 12,28.5 11.3,24.6 12,23.5 12.6,27 17.2,26.9 "
       fill="#4a4a49"
       id="XMLID_10_" />
    <path
       fill="#4a4a49"
       d="m 15.5,17.2 0.8,-0.8 v 1.7 l -0.5,0.5 z m 5.4,1.4 c 1.2,1.3 1.5,3.1 0.2,4.4 -1.3,1.3 -3.1,1 -4.4,-0.2 -1.2,-1.3 -1.5,-3.1 -0.2,-4.4 1.3,-1.3 3.1,-1.1 4.4,0.2 M 17.5,22 c 0.8,0.8 2.1,1.3 3,0.3 0.9,-0.9 0.5,-2.2 -0.3,-3 -0.8,-0.8 -2.1,-1.3 -3,-0.3 -1,0.9 -0.6,2.2 0.3,3"
       id="XMLID_11_" />
    <polygon
       points="23,13 26,17.3 28.6,15.4 29.1,16.2 25.7,18.6 22.1,13.6 "
       fill="#4a4a49"
       id="XMLID_15_" />
    <rect
       y="8.5"
       x="30.299999"
       width="1.1"
       transform="matrix(-0.8758,0.4826,-0.4826,-0.8758,63.4878,6.8831)"
       height="6.1999998"
       fill="#4a4a49"
       id="XMLID_16_" />
    <polygon
       points="39.7,11 35.5,7.7 35.4,7.8 37.1,12 36.1,12.4 33.9,6.6 35,6.2 39.2,9.4 39.3,9.4 37.6,5.2 38.6,4.8 40.8,10.6 "
       fill="#4a4a49"
       id="XMLID_17_" />
    <polygon
       points="48.1,8.8 44.4,4.9 44.4,4.9 45.3,9.3 44.3,9.6 43,3.5 44.2,3.3 47.8,7.2 47.9,7.2 47,2.7 48,2.5 49.2,8.6 "
       fill="#4a4a49"
       id="XMLID_18_" />
    <path
       fill="#4a4a49"
       d="M 57.9,1.9 H 59 l -0.2,6.2 h -1.1 z m 0.8,-1.8 h 1.2 l -1.3,1.2 h -0.7 z"
       id="XMLID_19_" />
    <path
       fill="#4a4a49"
       d="M 68.9,3.2 71.8,4 c 1.3,0.3 1.8,1.1 1.6,2.1 -0.3,1.1 -1.2,1.2 -1.4,1.2 v 0 c 0.3,0.1 0.8,0.6 0.6,1.5 -0.2,0.7 -0.3,1.4 -0.1,1.7 L 71.4,10.2 C 71.3,9.9 71.4,9.6 71.5,9.3 71.8,8.2 71.7,7.7 70.7,7.4 L 69.1,7 68.4,9.5 67.4,9.2 Z m 0.4,3 1.7,0.4 C 71.7,6.8 72.1,6.5 72.3,5.9 72.5,5.1 72,4.9 71.5,4.7 L 69.8,4.3 Z"
       id="XMLID_22_" />
    <polygon
       points="77.6,9.6 76.8,11.2 80,12.6 79.6,13.5 75.5,11.6 78,6 82.1,7.8 81.7,8.7 78.6,7.3 78,8.8 80.8,10 80.4,10.8 "
       fill="#4a4a49"
       id="XMLID_25_" />
    <polygon
       points="84.8,16.6 83.8,16 85.2,13.9 85.3,9.5 86.3,10.2 86.2,13.4 89.1,12 90.1,12.6 86.1,14.5 "
       fill="#4a4a49"
       id="XMLID_26_" />
    <polygon
       points="92,22.4 92.5,18.8 91.2,18.9 89.8,20.4 89,19.7 93.2,15.1 94,15.8 92.1,17.9 96,17.7 97,18.6 93.5,18.8 93,23.3 "
       fill="#4a4a49"
       id="XMLID_27_" />
    <path
       fill="#4a4a49"
       d="m 98.6,26.9 c -0.8,0.7 -1.8,1.1 -2.9,-0.2 -0.8,-1 -0.5,-2 0.4,-2.7 l 0.3,-0.2 0.7,0.8 -0.2,0.2 c -0.5,0.4 -0.7,0.8 -0.3,1.4 0.4,0.5 0.9,0.4 1.5,-0.1 l 3.3,-2.7 0.7,0.8 z"
       id="XMLID_28_" />
    <path
       fill="#4a4a49"
       d="m 105.4,29.4 0.6,1 -4.1,5.2 -0.6,-1 1.1,-1.3 -1.2,-2.1 -1.7,0.3 -0.6,-1 z m -3.4,1.6 1,1.6 1.8,-2.1 v 0 z"
       id="XMLID_29_" />
    <polygon
       points="103.4,39.1 108.3,34.9 108.7,35.9 104.8,39.2 109.9,38.9 110.3,39.9 103.8,40.2 "
       fill="#4a4a49"
       id="XMLID_32_" />
    <path
       fill="#4a4a49"
       d="m 111.4,43.5 0.3,1 -6,1.6 -0.3,-1 z m 1.9,0.2 0.3,1.1 -1.5,-0.9 -0.2,-0.7 z"
       id="XMLID_33_" />
    <polygon
       points="107.1,53.8 109.7,51.4 108.7,50.6 106.7,50.9 106.5,49.8 112.7,49 112.8,50.1 110,50.5 113.2,52.8 113.3,54.2 110.6,52 107.2,55.1 "
       fill="#4a4a49"
       id="XMLID_36_" />
    <path
       fill="#4a4a49"
       d="m 7,68.6 0.7,2.9 C 8,72.8 7.6,73.6 6.6,73.9 5.4,74.2 5,73.5 4.8,73.3 v 0 c 0,0.4 -0.1,1 -1,1.2 -0.7,0.2 -1.3,0.4 -1.5,0.7 L 2,74.1 C 2.2,73.9 2.5,73.8 2.8,73.7 3.9,73.4 4.3,73.1 4.1,72.1 L 3.7,70.6 1.2,71.2 0.9,70.2 Z M 4.5,70.3 4.9,72 c 0.2,0.7 0.6,0.9 1.2,0.8 0.8,-0.2 0.8,-0.7 0.7,-1.3 L 6.4,69.8 Z"
       id="XMLID_37_" />
    <polygon
       points="6.6,78.9 4.9,79.6 6.3,82.8 5.4,83.1 3.6,79 9.3,76.5 11.1,80.6 10.2,81 8.9,77.9 7.4,78.6 8.6,81.4 7.8,81.8 "
       fill="#4a4a49"
       id="XMLID_40_" />
    <polygon
       points="8.8,89 8.2,88.1 10.3,86.8 12.2,82.9 12.9,83.9 11.4,86.8 14.6,86.7 15.3,87.7 10.8,87.8 "
       fill="#4a4a49"
       id="XMLID_41_" />
    <polygon
       points="14.9,97 15.8,93.5 14.6,93.4 13,94.8 12.3,94 17,89.9 17.7,90.7 15.5,92.6 19.5,92.8 20.4,93.8 16.9,93.6 15.8,98 "
       fill="#4a4a49"
       id="XMLID_42_" />
    <path
       fill="#4a4a49"
       d="m 22.4,101.2 c -0.7,0.8 -1.6,1.5 -2.9,0.3 -1,-0.8 -0.9,-1.8 -0.1,-2.7 l 0.2,-0.3 0.8,0.7 -0.2,0.2 c -0.5,0.5 -0.6,1 -0.1,1.4 0.5,0.5 0.9,0.2 1.4,-0.3 l 2.8,-3.2 0.8,0.7 z"
       id="XMLID_43_" />
    <path
       fill="#4a4a49"
       d="m 29.3,101 1,0.6 -1.3,6.5 -1,-0.6 0.4,-1.7 -2.1,-1.3 -1.4,1.1 L 24,105 Z m -2.3,3 1.6,1 0.6,-2.7 v 0 z"
       id="XMLID_44_" />
    <polygon
       points="33.1,110.1 33.7,103.6 34.7,104.1 34.2,109.2 37.6,105.4 38.6,105.8 34.2,110.6 "
       fill="#4a4a49"
       id="XMLID_47_" />
    <path
       fill="#4a4a49"
       d="m 41.4,106.7 1,0.3 -1.8,5.9 -1,-0.3 z m 1.2,-1.5 1.1,0.3 -1.5,0.8 -0.7,-0.2 z"
       id="XMLID_48_" />
    <polygon
       points="48.8,114.7 47.3,111.5 46.3,112.2 45.9,114.2 44.9,114 45.9,107.9 47,108.1 46.5,110.9 49.7,108.6 51,108.8 48.2,110.8 50.1,114.9 "
       fill="#4a4a49"
       id="XMLID_51_" />
    <path
       fill="#4a4a49"
       d="m 58.6,109.1 1.1,-0.1 0.3,3.6 c 0.1,0.8 0.2,1.8 1.6,1.7 1.4,-0.1 1.4,-1.1 1.3,-1.9 l -0.3,-3.6 1.1,-0.1 0.3,3.9 c 0.1,1.6 -0.8,2.5 -2.3,2.6 -1.5,0.1 -2.6,-0.6 -2.7,-2.1 z"
       id="XMLID_52_" />
    <polygon
       points="72.3,113.1 68.4,109.4 68.4,109.4 69.6,113.8 68.6,114 67,108.1 68.1,107.8 72,111.5 70.9,107.1 71.9,106.8 73.4,112.8 "
       fill="#4a4a49"
       id="XMLID_53_" />
    <rect
       y="105.1"
       x="76.300003"
       width="1.1"
       transform="matrix(-0.9273,0.3744,-0.3744,-0.9273,188.6073,179.8454)"
       height="6.1999998"
       fill="#4a4a49"
       id="XMLID_54_" />
    <polygon
       points="83.7,108.5 78.9,104 79.9,103.5 83.6,107 82.6,102 83.6,101.4 84.7,107.9 "
       fill="#4a4a49"
       id="XMLID_55_" />
    <polygon
       points="88.9,101.9 90,103.4 92.7,101.3 93.3,102 89.7,104.8 85.9,99.8 89.5,97.1 90,97.9 87.3,99.9 88.3,101.2 90.8,99.3 91.3,100 "
       fill="#4a4a49"
       id="XMLID_56_" />
    <path
       fill="#4a4a49"
       d="m 91.8,95 2,-2.1 c 0.9,-1 1.9,-1.1 2.6,-0.3 0.9,0.8 0.5,1.6 0.4,1.8 v 0 c 0.3,-0.2 0.9,-0.4 1.6,0.2 0.5,0.5 1.1,0.9 1.4,0.9 L 99,96.3 c -0.3,-0.1 -0.6,-0.3 -0.8,-0.5 -0.8,-0.8 -1.3,-1 -2,-0.2 l -1.1,1.2 1.8,1.8 -0.7,0.8 z m 2.8,1.1 1.2,-1.3 c 0.5,-0.5 0.5,-1 0,-1.4 -0.6,-0.5 -1,-0.3 -1.4,0.1 l -1.2,1.3 z"
       id="XMLID_57_" />
    <path
       fill="#4a4a49"
       d="m 101.1,90.5 c 0.8,0.5 1.5,0.2 2,-0.5 0.5,-0.8 0.4,-1.3 0,-1.6 -0.4,-0.3 -0.7,-0.2 -0.9,0 -0.4,0.3 -0.8,0.7 -1.5,1.2 -0.8,0.7 -1.5,0.6 -2.1,0.2 -1,-0.7 -0.8,-2 -0.2,-2.9 0.7,-1.1 1.9,-1.6 3,-0.8 l -0.6,0.9 c -0.7,-0.4 -1.2,-0.1 -1.7,0.5 -0.3,0.4 -0.5,1 0,1.4 0.4,0.2 0.7,0.1 1.1,-0.2 0.1,-0.1 1.1,-1 1.4,-1.2 0.7,-0.5 1.5,-0.5 2,-0.1 1.1,0.8 0.9,2.1 0.2,3.1 -0.8,1.2 -2,1.7 -3.3,0.9 z"
       id="XMLID_60_" />
    <rect
       y="80"
       x="104"
       width="1.1"
       transform="matrix(-0.4611,0.8873,-0.8873,-0.4611,226.4113,28.6302)"
       height="6.1999998"
       fill="#4a4a49"
       id="XMLID_61_" />
    <polygon
       points="104.2,78.8 103.4,78.4 105.1,73.7 106,74.1 105.3,75.9 110.2,77.8 109.8,78.8 104.9,76.9 "
       fill="#4a4a49"
       id="XMLID_62_" />
    <polygon
       points="112.5,69.6 112.3,70.6 109.9,70.1 105.8,71.6 106,70.4 109.1,69.4 106.7,67.2 106.9,66 110.1,69.1 "
       fill="#4a4a49"
       id="XMLID_63_" />
  </g>
</svg>
