<?xml version="1.0" encoding="UTF-8" standalone="no"?>
<svg
   inkscape:version="1.1.2 (0a00cf5339, 2022-02-04)"
   sodipodi:docname="Reykjavik_University_Logo.svg"
   version="1.1"
   width="306.99988"
   viewBox="0 0 306.99987 311.35299"
   height="311.353"
   id="Layer_1"
   xmlns:inkscape="http://www.inkscape.org/namespaces/inkscape"
   xmlns:sodipodi="http://sodipodi.sourceforge.net/DTD/sodipodi-0.dtd"
   xmlns="http://www.w3.org/2000/svg"
   xmlns:svg="http://www.w3.org/2000/svg"
   xmlns:rdf="http://www.w3.org/1999/02/22-rdf-syntax-ns#"
   xmlns:cc="http://creativecommons.org/ns#"
   xmlns:dc="http://purl.org/dc/elements/1.1/">
  <metadata
     id="metadata48">
    <rdf:RDF>
      <cc:Work
         rdf:about="">
        <dc:format>image/svg+xml</dc:format>
        <dc:type
           rdf:resource="http://purl.org/dc/dcmitype/StillImage" />
      </cc:Work>
    </rdf:RDF>
  </metadata>
  <defs
     id="defs46" />
  <sodipodi:namedview
     inkscape:current-layer="XMLID_1_"
     inkscape:window-maximized="1"
     inkscape:window-y="0"
     inkscape:window-x="0"
     inkscape:cy="187.49215"
     inkscape:cx="358.90488"
     inkscape:zoom="1.648069"
     showgrid="false"
     id="namedview44"
     inkscape:window-height="1043"
     inkscape:window-width="1920"
     inkscape:pageshadow="2"
     inkscape:pageopacity="0"
     guidetolerance="10"
     gridtolerance="10"
     objecttolerance="10"
     borderopacity="1"
     bordercolor="#666666"
     pagecolor="#ffffff"
     inkscape:pagecheckerboard="0" />
  <g
     transform="matrix(2.7048448,0,0,2.7048448,-0.27048448,-0.27048448)"
     id="XMLID_1_">
    <path
       fill="#e63312"
       d="m 77.2,66.2 c 0.2,-0.5 0.4,-1.1 0.5,-1.7 l 13.9,4.8 c 2,-6.5 2.2,-13.6 0.3,-20.6 -0.6,-2.2 -1.5,-4.4 -2.5,-6.4 l 6.4,-2.8 C 93.5,34.8 90.4,30.5 86.4,26.8 82.4,23 77.8,20.2 73,18.3 l -7.4,20.4 c -1,-0.4 -1.9,-0.8 -3,-1.1 l 4,-14.1 c -5,-1.4 -10.5,-1.8 -15.9,-0.9 l 1,6.1 c -1,0.2 -2,0.4 -2.9,0.6 L 46,16.4 c -7.8,2 -15.2,6.2 -21.2,12.5 -5.9,6.4 -9.6,14 -11,22 l 6.9,1 c -0.2,1 -0.3,1.9 -0.4,2.9 l 6.2,0.4 c -0.3,2.3 -0.3,4.5 0,6.8 L 45,59.3 c -0.1,-1 0,-2 0.2,-2.9 0,-0.1 0,-0.2 0.1,-0.3 0,-0.1 0,-0.2 0.1,-0.3 0.1,-0.3 0.1,-0.5 0.2,-0.8 0,-0.1 0.1,-0.2 0.1,-0.4 0.1,-0.3 0.2,-0.5 0.3,-0.8 0,-0.1 0.1,-0.2 0.1,-0.3 0.2,-0.3 0.3,-0.7 0.5,-1 0,0 0.1,-0.1 0.1,-0.1 0.2,-0.3 0.4,-0.7 0.7,-1 0,-0.1 0.1,-0.1 0.1,-0.2 0.2,-0.2 0.3,-0.4 0.5,-0.6 1.3,-1.4 2.8,-2.3 4.4,-3 0.3,-0.1 0.6,-0.2 0.9,-0.3 0,0 0.1,0 0.1,0 0.4,-0.1 0.7,-0.2 1.1,-0.2 0,0 0.1,0 0.1,0 0.1,0 0.3,0 0.4,-0.1 0.2,0 0.5,-0.1 0.7,-0.1 0.1,0 0.1,0 0.2,0 0.2,0 0.4,0 0.6,0 0.2,0 0.4,0 0.6,0 0,0 0,0 0.1,0 0.4,0 0.7,0.1 1.1,0.1 0.1,0 0.1,0 0.2,0 0.4,0.1 0.8,0.1 1.2,0.3 0.9,0.2 1.7,0.6 2.6,1 0.1,0.1 0.2,0.1 0.3,0.2 0.1,0.1 0.2,0.1 0.4,0.2 0.2,0.1 0.5,0.3 0.7,0.5 0,0 0,0 0,0 0.1,0 0.1,0.1 0.2,0.1 0.3,0.2 0.5,0.4 0.8,0.7 0.3,0.3 0.5,0.5 0.8,0.8 0.1,0.1 0.1,0.1 0.2,0.2 0.2,0.3 0.4,0.5 0.6,0.8 0,0 0,0 0.1,0.1 0,0.1 0.1,0.1 0.1,0.2 0.2,0.3 0.4,0.6 0.5,0.8 0,0.1 0.1,0.1 0.1,0.2 0.2,0.3 0.3,0.7 0.5,1 0,0 0,0 0,0 0.1,0.3 0.3,0.7 0.4,1 0,0.1 0,0.1 0.1,0.2 0.1,0.3 0.2,0.6 0.2,0.9 0,0.1 0,0.2 0.1,0.4 0,0.3 0.1,0.5 0.1,0.8 0,0.1 0,0.2 0,0.3 0,0.3 0,0.6 0,1 0,0.1 0,0.2 0,0.3 0,0.3 0,0.5 -0.1,0.7 0,0.2 0,0.3 -0.1,0.5 0,0.1 0,0.2 -0.1,0.4 0,0.2 -0.1,0.3 -0.1,0.5 -0.1,0.5 -0.2,0.9 -0.4,1.4 -0.1,0.3 -0.2,0.6 -0.4,0.9 0,0.1 -0.1,0.1 -0.1,0.2 -0.5,1.1 -1.2,2.1 -2.1,3 -0.1,0.1 -0.1,0.1 -0.2,0.2 -1.1,1.1 -2.4,2 -3.7,2.6 -0.1,0 -0.1,0.1 -0.2,0.1 -0.2,0.1 -0.3,0.1 -0.5,0.2 -0.2,0.1 -0.5,0.2 -0.7,0.2 -0.1,0 -0.1,0 -0.2,0.1 -0.3,0.1 -0.7,0.2 -1,0.2 -0.1,0 -0.3,0 -0.4,0.1 -0.2,0 -0.5,0.1 -0.7,0.1 -0.1,0 -0.3,0 -0.4,0 -0.3,0 -0.6,0 -0.9,0 -0.1,0 -0.1,0 -0.2,0 -0.4,0 -0.7,-0.1 -1.1,-0.1 C 54.3,70.2 53.8,70.1 53.2,70 L 40.9,99.1 c 11.1,4.3 23.6,3.9 34.4,-1.2 l -3.2,-6.2 c 2.3,-1.1 4.5,-2.4 6.4,-3.8 L 74.7,83 c 1.3,-0.9 2.5,-2 3.6,-3.1 l 9.3,9.3 c 0.3,-0.3 0.6,-0.6 1,-1 3.9,-4.2 6.8,-8.9 8.7,-13.9 z"
       id="XMLID_2_" />
    <path
       fill="#e63312"
       d="m 46.4,77.8 4.5,-9 C 50.1,68.4 49.4,67.8 48.8,67.2 48.6,67 48.3,66.7 48.1,66.5 48.1,66.5 48,66.4 48,66.3 47.7,66 47.5,65.7 47.3,65.4 47.2,65.3 47.2,65.2 47.1,65.1 46.9,64.8 46.8,64.6 46.6,64.3 46.5,64.2 46.5,64.1 46.4,64 46.2,63.7 46.1,63.4 46,63.1 46,63 45.9,63 45.9,62.9 c -0.1,-0.3 -0.3,-0.7 -0.4,-1 0,-0.1 -0.1,-0.3 -0.1,-0.4 l -24,5.9 c 0.1,0.3 0.2,0.6 0.2,1 l -6.7,1.9 c 1.7,6 4.6,11.8 8.9,16.7 l 10.1,-8.5 c 1.1,1.2 2.2,2.4 3.5,3.4 L 43,75.5 c 0.9,0.8 2.1,1.6 3.4,2.3"
       id="XMLID_3_" />
  </g>
</svg>
